<?xml version="1.0" encoding="UTF-8" standalone="no"?>
<!-- Generator: Adobe Illustrator 19.0.0, SVG Export Plug-In . SVG Version: 6.00 Build 0)  -->

<svg
   xmlns:dc="http://purl.org/dc/elements/1.1/"
   xmlns:cc="http://creativecommons.org/ns#"
   xmlns:rdf="http://www.w3.org/1999/02/22-rdf-syntax-ns#"
   xmlns:svg="http://www.w3.org/2000/svg"
   xmlns="http://www.w3.org/2000/svg"
   xmlns:sodipodi="http://sodipodi.sourceforge.net/DTD/sodipodi-0.dtd"
   xmlns:inkscape="http://www.inkscape.org/namespaces/inkscape"
   version="1.1"
   id="Layer_1"
   x="0px"
   y="0px"
   viewBox="0 0 299.997 299.997"
   style="enable-background:new 0 0 299.997 299.997;"
   xml:space="preserve"
   sodipodi:docname="user-3_black.svg"
   inkscape:version="0.92.3 (2405546, 2018-03-11)"><metadata
   id="metadata43"><rdf:RDF><cc:Work
       rdf:about=""><dc:format>image/svg+xml</dc:format><dc:type
         rdf:resource="http://purl.org/dc/dcmitype/StillImage" /></cc:Work></rdf:RDF></metadata><defs
   id="defs41" /><sodipodi:namedview
   pagecolor="#ffffff"
   bordercolor="#666666"
   borderopacity="1"
   objecttolerance="10"
   gridtolerance="10"
   guidetolerance="10"
   inkscape:pageopacity="0"
   inkscape:pageshadow="2"
   inkscape:window-width="1920"
   inkscape:window-height="1020"
   id="namedview39"
   showgrid="false"
   inkscape:zoom="3.146698"
   inkscape:cx="91.81237"
   inkscape:cy="96.3509"
   inkscape:window-x="0"
   inkscape:window-y="0"
   inkscape:window-maximized="1"
   inkscape:current-layer="g4" />
<g
   id="g6">
	<g
   id="g4">
		<path
   d="M149.996,0C67.157,0,0.001,67.158,0.001,149.997c0,82.837,67.156,150,149.995,150s150-67.163,150-150    C299.996,67.156,232.835,0,149.996,0z M150.453,220.763v-0.002h-0.916H85.465c0-46.856,41.152-46.845,50.284-59.097l1.045-5.587    c-12.83-6.502-21.887-22.178-21.887-40.512c0-24.154,15.712-43.738,35.089-43.738c19.377,0,35.089,19.584,35.089,43.738    c0,18.178-8.896,33.756-21.555,40.361l1.19,6.349c10.019,11.658,49.802,12.418,49.802,58.488H150.453z"
   id="path2"
   style="fill:none;fill-opacity:1" />
	<path
   style="opacity:0.93999999;fill:#000000;fill-opacity:1;fill-rule:evenodd;stroke:#000000;stroke-width:1.201;stroke-linecap:square;stroke-linejoin:miter;stroke-miterlimit:4;stroke-dasharray:none;stroke-dashoffset:0;stroke-opacity:1;paint-order:stroke fill markers"
   d="m 86.579378,217.29244 c 1.518016,-14.0692 4.91682,-22.60838 12.076926,-30.34214 4.601376,-4.97004 10.152596,-8.62281 23.593426,-15.52477 12.06421,-6.19506 14.34588,-8.09129 15.09889,-12.54828 0.44669,-2.64394 0.37357,-2.81589 -1.98121,-4.65941 -8.55675,-6.69896 -13.53589,-13.40205 -16.46609,-22.16721 -4.13372,-12.36524 -3.24848,-27.69669 2.22545,-38.542965 6.12476,-12.135819 16.17076,-19.637337 27.06798,-20.21212 13.20232,-0.696365 24.56255,7.084006 31.22832,21.38758 3.3285,7.142395 4.15026,12.137835 3.83271,23.298855 -0.25191,8.85341 -0.41413,9.8978 -2.27315,14.63415 -3.57418,9.10615 -7.79304,14.62286 -16.88805,22.08332 -1.81384,1.48785 -1.82818,1.55131 -1.067,4.72422 0.47203,1.96765 1.45656,3.87241 2.53622,4.90679 0.97057,0.92987 6.7131,4.26537 12.76118,7.41223 6.04808,3.14685 13.12123,7.19038 15.71812,8.98561 11.57615,8.00258 17.57512,18.89025 18.92068,34.33958 l 0.42902,4.9258 H 149.84036 86.287923 Z"
   id="path874"
   inkscape:connector-curvature="0" /></g>
</g>
<g
   id="g8">
</g>
<g
   id="g10">
</g>
<g
   id="g12">
</g>
<g
   id="g14">
</g>
<g
   id="g16">
</g>
<g
   id="g18">
</g>
<g
   id="g20">
</g>
<g
   id="g22">
</g>
<g
   id="g24">
</g>
<g
   id="g26">
</g>
<g
   id="g28">
</g>
<g
   id="g30">
</g>
<g
   id="g32">
</g>
<g
   id="g34">
</g>
<g
   id="g36">
</g>
<path
   style="opacity:0.93999999;fill:none;fill-opacity:1;fill-rule:evenodd;stroke:#000000;stroke-width:1.20110905;stroke-linecap:square;stroke-linejoin:miter;stroke-miterlimit:4;stroke-dasharray:none;stroke-dashoffset:0;stroke-opacity:1;paint-order:stroke fill markers"
   d="m 85.870523,216.33906 c 0.667219,-7.64255 2.242507,-13.70138 5.118418,-19.68631 5.045241,-10.49944 13.075889,-17.37595 29.182659,-24.98866 8.63278,-4.08019 14.61875,-7.71591 15.51395,-9.42275 0.29983,-0.5717 0.73951,-2.21355 0.97706,-3.64857 0.42786,-2.58468 0.40246,-2.62802 -2.7112,-4.62605 -8.65309,-5.55268 -15.17822,-15.92855 -17.63167,-28.03686 -1.45705,-7.19083 -1.00071,-18.80338 0.98671,-25.10872 6.03518,-19.147418 21.40664,-30.942125 36.86266,-28.285158 13.58056,2.334568 24.51898,13.604616 28.99505,29.874128 1.58641,5.76621 1.6329,20.28372 0.0835,26.05906 -2.73883,10.20859 -9.84165,20.83209 -16.999,25.42495 -2.21069,1.41859 -3.11773,2.38348 -2.90985,3.09544 0.16611,0.56892 0.49672,2.13156 0.73469,3.47254 0.56043,3.15804 3.20163,5.13321 13.39348,10.01607 18.09133,8.66745 26.12323,15.19789 31.21454,25.37938 3.31938,6.63803 4.56066,11.28328 5.04838,18.89254 l 0.37683,5.87918 h -64.3054 -64.305356 z"
   id="path850"
   inkscape:connector-curvature="0" /></svg>